<?xml version="1.0" encoding="UTF-8" standalone="no"?>
<svg
   width="1088"
   height="687.962"
   viewBox="0 0 1088 687.962"
   version="1.1"
   id="svg160"
   sodipodi:docname="undraw_docusaurus_mountain.svg"
   inkscape:version="1.1.2 (0a00cf5339, 2022-02-04, custom)"
   xmlns:inkscape="http://www.inkscape.org/namespaces/inkscape"
   xmlns:sodipodi="http://sodipodi.sourceforge.net/DTD/sodipodi-0.dtd"
   xmlns:xlink="http://www.w3.org/1999/xlink"
   xmlns="http://www.w3.org/2000/svg"
   xmlns:svg="http://www.w3.org/2000/svg">
  <defs
     id="defs164">
    <linearGradient
       inkscape:collect="always"
       xlink:href="#linearGradient2321"
       id="linearGradient5440"
       x1="927.90961"
       y1="606.18268"
       x2="1648.1733"
       y2="606.18268"
       gradientUnits="userSpaceOnUse" />
    <linearGradient
       id="linearGradient2321"
       inkscape:collect="always">
      <stop
         id="stop2317"
         offset="0"
         style="stop-color:#ff5f6d;stop-opacity:1" />
      <stop
         id="stop2319"
         offset="1"
         style="stop-color:#ffc371;stop-opacity:1" />
    </linearGradient>
  </defs>
  <sodipodi:namedview
     id="namedview162"
     pagecolor="#505050"
     bordercolor="#eeeeee"
     borderopacity="1"
     inkscape:pageshadow="0"
     inkscape:pageopacity="0"
     inkscape:pagecheckerboard="0"
     showgrid="false"
     inkscape:zoom="0.12626379"
     inkscape:cx="-407.87625"
     inkscape:cy="704.87352"
     inkscape:window-width="1896"
     inkscape:window-height="1001"
     inkscape:window-x="10"
     inkscape:window-y="65"
     inkscape:window-maximized="1"
     inkscape:current-layer="svg160" />
  <g
     id="g5319"
     transform="matrix(1.0612809,0,0,1.0612809,-822.97385,-299.34927)"
     style="fill-opacity:1.0;fill:url(#linearGradient5440)">
    <path
       d="M 1180.0019,570.16949 A 144.05276,144.05276 0 1 0 1035.9492,426.11673 144.05276,144.05276 0 0 0 1180.0019,570.16949 Z"
       id="path4943"
       style="stroke-width:36.0132;fill-opacity:1.0;fill:url(#linearGradient5440)" />
    <path
       d="M 1468.1074,642.19587 A 108.03957,108.03957 0 1 0 1360.0679,534.1563 108.03957,108.03957 0 0 0 1468.1074,642.19587 Z"
       id="path4945"
       style="stroke-width:36.0132;fill-opacity:1.0;fill:url(#linearGradient5440)" />
    <path
       d="M 1612.1602,894.28819 A 36.013189,36.013189 0 0 0 1648.1734,858.275 180.06594,180.06594 0 0 0 1357.9071,716.0229 252.09232,252.09232 0 0 0 927.90961,894.28819 36.013189,36.013189 0 0 0 963.9228,930.30138 h 432.1583 a 36.013189,36.013189 0 0 0 36.0132,-36.01319"
       id="path4947"
       style="stroke-width:36.0132;fill-opacity:1.0;fill:url(#linearGradient5440)" />
  </g>
</svg>
