<?xml version="1.0" encoding="UTF-8" standalone="no"?>
<svg
   sodipodi:docname="white.svg"
   inkscape:version="1.1.1 (3bf5ae0d25, 2021-09-20, custom)"
   id="svg219"
   version="1.1"
   viewBox="0 0 2774.7706 719.38398"
   height="190.33701mm"
   width="734.15802mm"
   xmlns:inkscape="http://www.inkscape.org/namespaces/inkscape"
   xmlns:sodipodi="http://sodipodi.sourceforge.net/DTD/sodipodi-0.dtd"
   xmlns="http://www.w3.org/2000/svg"
   xmlns:svg="http://www.w3.org/2000/svg"
   xmlns:rdf="http://www.w3.org/1999/02/22-rdf-syntax-ns#"
   xmlns:cc="http://creativecommons.org/ns#"
   xmlns:dc="http://purl.org/dc/elements/1.1/">
  <defs
     id="defs213" />
  <sodipodi:namedview
     inkscape:snap-nodes="true"
     inkscape:snap-smooth-nodes="true"
     inkscape:snap-intersection-paths="true"
     inkscape:object-paths="true"
     inkscape:guide-bbox="true"
     showguides="true"
     inkscape:window-maximized="1"
     inkscape:window-y="65"
     inkscape:window-x="10"
     inkscape:window-height="1001"
     inkscape:window-width="1896"
     inkscape:showpageshadow="false"
     fit-margin-bottom="0"
     fit-margin-right="0"
     fit-margin-left="0"
     fit-margin-top="0"
     showgrid="false"
     inkscape:document-rotation="0"
     inkscape:current-layer="layer2"
     inkscape:document-units="px"
     inkscape:cy="512"
     inkscape:cx="1456"
     inkscape:zoom="0.25"
     inkscape:pageshadow="2"
     inkscape:pageopacity="0"
     borderopacity="1.0"
     bordercolor="#666666"
     pagecolor="#262626"
     id="base"
     inkscape:pagecheckerboard="0"
     height="190.337mm" />
  <metadata
     id="metadata216">
    <rdf:RDF>
      <cc:Work
         rdf:about="">
        <dc:format>image/svg+xml</dc:format>
        <dc:type
           rdf:resource="http://purl.org/dc/dcmitype/StillImage" />
      </cc:Work>
    </rdf:RDF>
  </metadata>
  <g
     inkscape:label="Contents"
     id="layer2"
     inkscape:groupmode="layer">
    <g
       style="fill:#f2f2f2"
       id="g1411"
       transform="matrix(3.0005587,0,0,3.0005587,-585.85907,-1536.7607)"
       inkscape:export-xdpi="144.97861"
       inkscape:export-ydpi="144.97861">
      <path
         d="m 263.75,580.6582 v 34.25 34.25 34.25 H 298 v -34.25 -8.5625 h 34.25 v -17.125 H 298 v -8.5625 -34.25 z m 68.5,42.8125 h 34.25 v -42.8125 h -34.25 z m 0,17.125 v 42.8125 h 34.25 v -42.8125 z"
         style="opacity:1;fill:#f2f2f2;fill-rule:evenodd;stroke:none;stroke-width:1.11803;stroke-linecap:round;stroke-miterlimit:4;stroke-dasharray:none"
         id="path1397" />
      <path
         d="m 400.75,580.6582 v 34.25 34.25 34.25 H 435 v -34.25 -8.5625 h 34.25 v 8.5625 34.25 h 34.25 v -34.25 -34.25 -34.25 H 469.25 435 Z m 34.25,34.25 h 34.25 v 8.5625 H 435 Z"
         style="opacity:1;fill:#f2f2f2;fill-rule:evenodd;stroke:none;stroke-width:1;stroke-linecap:round;stroke-miterlimit:4;stroke-dasharray:none"
         id="path1399" />
      <path
         d="m 537.75,580.6582 v 34.25 34.25 34.25 H 572 606.25 640.5 v -34.25 -8.5625 h -17.125 v -17.125 H 640.5 v -8.5625 -34.25 H 606.25 572 Z m 34.25,34.25 h 34.25 v 8.5625 h -17.125 v 17.125 h 17.125 v 8.5625 H 572 Z"
         style="opacity:1;fill:#f2f2f2;fill-rule:evenodd;stroke:none;stroke-width:1;stroke-linecap:round;stroke-miterlimit:4;stroke-dasharray:none"
         id="path1401" />
      <path
         d="m 674.75,580.6582 v 34.25 34.25 34.25 H 709 743.25 777.5 v -34.25 -34.25 -34.25 H 743.25 709 Z m 34.25,34.25 h 34.25 v 34.25 H 709 Z"
         style="opacity:1;fill:#f2f2f2;fill-rule:evenodd;stroke:none;stroke-width:1;stroke-linecap:round;stroke-miterlimit:4;stroke-dasharray:none"
         id="path1403" />
      <path
         d="m 811.75,580.6582 v 34.25 34.25 34.25 H 846 880.25 914.5 v -34.25 -34.25 -34.25 H 880.25 846 Z m 34.25,34.25 h 34.25 v 34.25 H 846 Z"
         style="opacity:1;fill:#f2f2f2;fill-rule:evenodd;stroke:none;stroke-width:1;stroke-linecap:round;stroke-miterlimit:4;stroke-dasharray:none"
         id="path1405" />
      <path
         d="m 948.75,580.6582 v 34.25 34.25 34.25 H 983 v -34.25 -34.25 h 8.5625 v 17.125 h 17.125 v -17.125 h 8.5625 v 34.25 34.25 h 34.25 v -34.25 -34.25 -34.25 h -34.25 -8.5625 v 17.125 h -17.125 v -17.125 H 983 Z"
         style="opacity:1;fill:#f2f2f2;fill-rule:evenodd;stroke:none;stroke-width:1;stroke-linecap:round;stroke-miterlimit:4;stroke-dasharray:none"
         id="path1407" />
      <path
         d="m 195.25,512.1582 v 34.25 34.25 34.25 34.25 34.25 34.25 17.125 h 17.125 v 17.125 h 17.125 34.25 34.25 34.25 34.25 34.25 34.25 34.25 34.25 34.25 34.25 34.25 34.25 34.25 34.25 34.25 34.25 34.25 34.25 34.25 34.25 34.25 34.25 34.25 34.25 34.25 34.25 v -34.25 -34.25 -34.25 -34.25 -34.25 -34.25 -17.125 h -17.125 v -17.125 H 1085.75 1051.5 1017.25 983 948.75 914.5 880.25 846 811.75 777.5 743.25 709 674.75 640.5 606.25 572 537.75 503.5 469.25 435 400.75 366.5 332.25 298 263.75 229.5 Z m 34.25,34.25 h 34.25 34.25 34.25 34.25 34.25 34.25 34.25 34.25 34.25 34.25 34.25 34.25 34.25 34.25 34.25 34.25 34.25 34.25 34.25 34.25 34.25 34.25 34.25 34.25 34.25 v 34.25 34.25 34.25 34.25 34.25 H 1051.5 1017.25 983 948.75 914.5 880.25 846 811.75 777.5 743.25 709 674.75 640.5 606.25 572 537.75 503.5 469.25 435 400.75 366.5 332.25 298 263.75 229.5 v -34.25 -34.25 -34.25 -34.25 z"
         style="opacity:1;fill:#f2f2f2;fill-rule:evenodd;stroke:none;stroke-width:1;stroke-linecap:round;stroke-miterlimit:4;stroke-dasharray:none"
         id="path1409" />
    </g>
  </g>
  <inkscape:templateinfo>
    <inkscape:name>Dark Canvas</inkscape:name>
    <inkscape:date>2020-07-13</inkscape:date>
  </inkscape:templateinfo>
  <inkscape:templateinfo>
    <inkscape:name>Dark Background</inkscape:name>
    <inkscape:date>2020-07-14</inkscape:date>
  </inkscape:templateinfo>
</svg>
